# xmcd
#
# Track frame offsets: 
#        150
#        17305
#        34663
#        57021
#        74841
#        91743
#        108995
#        126466
#        139203
#        151925
#        171821
#        187119
#
# Disc length: 2780 seconds
#
# Revision: 0
# Processed by: cddbd v1.5.2PL0 Copyright (c) Steve Scherf et al.
# Submitted via: ExactAudioCopy v1.0b3
#
DISCID=a00ada0c
DTITLE=The Alexis P. Suter Band - Love The Way You Roll
DYEAR=2014
DGENRE=Blues
TTITLE0=Nuthin' In The World
TTITLE1=25 Years
TTITLE2=Anything
TTITLE3=Big Mama
TTITLE4=Love The Way You Roll
TTITLE5=Gonna Love You
TTITLE6=Waiting
TTITLE7=You Don't Move Me No More
TTITLE8=It Ain't Over
TTITLE9=Hang On
TTITLE10=Them Days
TTITLE11=Shake Your Hips
EXTD=
EXTT0=
EXTT1=
EXTT2=
EXTT3=
EXTT4=
EXTT5=
EXTT6=
EXTT7=
EXTT8=
EXTT9=
EXTT10=
EXTT11=
PLAYORDER=
